
<svg width="90px" height="90px" viewBox="0 0 90 90" version="1.1" xmlns="http://www.w3.org/2000/svg" xmlns:xlink="http://www.w3.org/1999/xlink">
    <path d=
    "M67.5542273,6.05161804 C80.9748478,13.8400189 90,28.3660408 90,45 C90,69.8528137 69.8528137,90 45,90 C20.1471863,90 0,69.8528137 0,45 C0,29.423553 7.9140734,15.6955369 19.9405919,7.61757996 L28.207218,20.1367117 C20.2381185,25.5296214 15,34.6530966 15,45 C15,61.5685425 28.4314575,75 45,75 C61.5685425,75 75,61.5685425 75,45 C75,33.9173476 68.99045,24.2383008 60.0522535,19.0437632 L67.5542273,6.05161804 Z"
        fill-opacity="0.8" fill="#000000"></path>
    <path d=
    "M45,1.56319402e-13 C53.2192695,1.56319402e-13 60.9238642,2.20358449 67.5552315,6.05220086 L60.0532581,19.0443471 C55.628643,16.4727007 50.4863053,15 45,15 C38.7783609,15 32.9990731,16.893931 28.207218,20.1367117 L19.9409431,7.61734407 C27.1031231,2.80675753 35.7237849,1.56319402e-13 45,1.56319402e-13 Z"
        fill-opacity="0.9" fill="#42A6F5"></path>
</svg>