<?xml version="1.0" encoding="UTF-8"?>
<svg width="18px" height="18px" viewBox="0 0 18 18" version="1.1" xmlns="http://www.w3.org/2000/svg" xmlns:xlink="http://www.w3.org/1999/xlink">
    <g stroke="none" stroke-width="1" fill="none" fill-rule="evenodd">
        <g>
            <rect fill="#D8D8D8" opacity="0" x="0" y="0" width="18" height="18"></rect>
            <g transform="translate(2.700000, 2.700000)">
                <rect stroke="currentColor" stroke-width="1.5" x="-0.75" y="-0.75" width="14.1" height="14.1" rx="0.92"></rect>
                <path d="M8.89961913,10.5099547 C9.23098998,10.5099547 9.49961913,10.7785839 9.49961913,11.1099547 C9.49961913,11.4413256 9.23098998,11.7099547 8.89961913,11.7099547 C8.56824828,11.7099547 8.29961913,11.4413256 8.29961913,11.1099547 C8.29961913,10.7785839 8.56824828,10.5099547 8.89961913,10.5099547 Z M11.0883534,5.25595474 C11.4197242,5.25595474 11.6883534,5.52458389 11.6883534,5.85595474 L11.6883534,11.0899973 C11.6883534,11.4213681 11.4197242,11.6899973 11.0883534,11.6899973 C10.7569825,11.6899973 10.4883534,11.4213681 10.4883534,11.0899973 L10.4883534,5.85595474 C10.4883534,5.52458389 10.7569825,5.25595474 11.0883534,5.25595474 Z M6.72668135,10.4822376 C7.0580522,10.4822376 7.32668135,10.7508667 7.32668135,11.0822376 C7.32668135,11.4136084 7.0580522,11.6822376 6.72668135,11.6822376 L1.4926388,11.6822376 C1.16126795,11.6822376 0.892638798,11.4136084 0.892638798,11.0822376 C0.892638798,10.7508667 1.16126795,10.4822376 1.4926388,10.4822376 L6.72668135,10.4822376 Z M1.50655918,8.15938708 C1.83793003,8.15938708 2.10655918,8.42801623 2.10655918,8.75938708 C2.10655918,9.09075793 1.83793003,9.35938708 1.50655918,9.35938708 C1.17518833,9.35938708 0.906559182,9.09075793 0.906559182,8.75938708 C0.906559182,8.42801623 1.17518833,8.15938708 1.50655918,8.15938708 Z M1.50968633,0.889997293 C1.84105718,0.889997293 2.10968633,1.15862644 2.10968633,1.48999729 L2.10968633,6.72403985 C2.10968633,7.0554107 1.84105718,7.32403985 1.50968633,7.32403985 C1.17831548,7.32403985 0.909686328,7.0554107 0.909686328,6.72403985 L0.909686328,1.48999729 C0.909686328,1.15862644 1.17831548,0.889997293 1.50968633,0.889997293 Z M11.1198216,3.17768606 C11.4511924,3.17768606 11.7198216,3.44631521 11.7198216,3.77768606 C11.7198216,4.10905691 11.4511924,4.37768606 11.1198216,4.37768606 C10.7884507,4.37768606 10.5198216,4.10905691 10.5198216,3.77768606 C10.5198216,3.44631521 10.7884507,3.17768606 11.1198216,3.17768606 Z M3.63190694,0.921486447 C3.96327779,0.921486447 4.23190694,1.1901156 4.23190694,1.52148645 C4.23190694,1.8528573 3.96327779,2.12148645 3.63190694,2.12148645 C3.30053609,2.12148645 3.03190694,1.8528573 3.03190694,1.52148645 C3.03190694,1.1901156 3.30053609,0.921486447 3.63190694,0.921486447 Z M11.0926388,0.914949344 C11.4240096,0.914949344 11.6926388,1.18357849 11.6926388,1.51494934 C11.6926388,1.84632019 11.4240096,2.11494934 11.0926388,2.11494934 L5.85859624,2.11494934 C5.52722539,2.11494934 5.25859624,1.84632019 5.25859624,1.51494934 C5.25859624,1.18357849 5.52722539,0.914949344 5.85859624,0.914949344 L11.0926388,0.914949344 Z" fill="currentColor"></path>
            </g>
        </g>
    </g>
</svg>
