<?xml version="1.0" encoding="UTF-8"?>
<svg width="18px" height="18px" viewBox="0 0 18 18" version="1.1" xmlns="http://www.w3.org/2000/svg" xmlns:xlink="http://www.w3.org/1999/xlink">
    <g stroke="none" stroke-width="1" fill="none" fill-rule="evenodd">
        <g transform="translate(0.000000, 1.000000)">
            <g transform="translate(0.980769, 0.010048)">
                <path d="M8.1042709,0.176649098 C10.3134099,0.176649098 12.3134099,1.0720796 13.7611251,2.51979485 C15.2088404,3.9675101 16.1042709,5.9675101 16.1042709,8.1766491 C16.1042709,10.3857881 15.2088404,12.3857881 13.7611251,13.8335033 C12.3134099,15.2812186 10.3134099,16.1766491 8.1042709,16.1766491 C5.8951319,16.1766491 3.8951319,15.2812186 2.44741665,13.8335033 C0.9997014,12.3857881 0.1042709,10.3857881 0.1042709,8.1766491 C0.1042709,5.9675101 0.9997014,3.9675101 2.44741665,2.51979485 C3.8951319,1.0720796 5.8951319,0.176649098 8.1042709,0.176649098 Z" stroke="currentColor" stroke-width="1.5"></path>
                <path d="M9.46512149,6.45530511 L11.5554086,9.04917785 C11.9019514,9.47920869 11.834271,10.108746 11.4042401,10.4552888 C11.2264822,10.5985361 11.0050617,10.6766491 10.7767689,10.6766491 L6.93803488,10.6766491 C6.38575013,10.6766491 5.93803488,10.2289338 5.93803488,9.6766491 C5.93803488,9.45080562 6.01448328,9.23161233 6.1549342,9.05475415 L8.21572917,6.45976615 C8.49049965,6.1137705 8.99373002,6.05603109 9.33972567,6.33080157 C9.38599356,6.36754495 9.42804865,6.40930079 9.46512149,6.45530511 Z" fill="currentColor" transform="translate(8.866916, 8.176649) rotate(-270.000000) translate(-8.866916, -8.176649) "></path>
            </g>
        </g>
    </g>
</svg>
