<?xml version="1.0" encoding="UTF-8"?>
<svg width="18px" height="18px" viewBox="0 0 18 18" version="1.1" xmlns="http://www.w3.org/2000/svg" xmlns:xlink="http://www.w3.org/1999/xlink">
    <g stroke="none" stroke-width="1" fill="none" fill-rule="evenodd">
        <g>
            <rect fill="#D8D8D8" opacity="0" x="0" y="0" width="18" height="18"></rect>
            <path d="M12.9336706,13.248592 C12.8738777,13.4894089 12.8439812,13.7609281 12.8439812,14.0631495 C12.8439812,14.3245997 12.8648244,14.5524181 12.9026926,14.7508968 L5.1646819,14.750097 C5.25097002,14.5154712 5.29911086,14.2632106 5.29911086,14 C5.29911086,13.7176063 5.23437586,13.4686657 5.12343724,13.2493845 Z M7.31940416,5.37304638 C7.61207953,5.70133126 8.03303506,5.97064662 8.58227075,6.18099247 L4.69455981,12.6982952 C4.32230991,12.359412 3.83139377,12.128989 3.37942026,11.9747595 L7.31940416,5.37304638 Z M10.8201452,5.58384376 L14.60525,11.8540854 C14.003479,11.9224747 13.5559128,12.1492251 13.2625516,12.5343366 L9.47729123,6.26412672 C10.0590085,6.14205059 10.5066265,5.9152896 10.8201452,5.58384376 Z" id="形状结合" fill="currentColor" fill-rule="nonzero"></path>
            <path d="M9.03443733,1.94874741 C9.65575767,1.94874741 10.2182577,2.20058724 10.6254276,2.60775715 C11.0325975,3.01492707 11.2844373,3.57742707 11.2844373,4.19874741 C11.2844373,4.82006775 11.0325975,5.38256775 10.6254276,5.78973767 C10.2182577,6.19690758 9.65575767,6.44874741 9.03443733,6.44874741 C8.41311699,6.44874741 7.85061699,6.19690758 7.44344707,5.78973767 C7.03627716,5.38256775 6.78443733,4.82006775 6.78443733,4.19874741 C6.78443733,3.57742707 7.03627716,3.01492707 7.44344707,2.60775715 C7.85061699,2.20058724 8.41311699,1.94874741 9.03443733,1.94874741 Z" id="椭圆形" stroke="currentColor" stroke-width="1.5"></path>
            <path d="M3.12955555,11.549992 C3.75087589,11.549992 4.31337589,11.8018319 4.7205458,12.2090018 C5.12771572,12.6161717 5.37955555,13.1786717 5.37955555,13.799992 C5.37955555,14.4213124 5.12771572,14.9838124 4.7205458,15.3909823 C4.31337589,15.7981522 3.75087589,16.049992 3.12955555,16.049992 C2.5082352,16.049992 1.9457352,15.7981522 1.53856529,15.3909823 C1.13139537,14.9838124 0.879555546,14.4213124 0.879555546,13.799992 C0.879555546,13.1786717 1.13139537,12.6161717 1.53856529,12.2090018 C1.9457352,11.8018319 2.5082352,11.549992 3.12955555,11.549992 Z" id="椭圆形备份-8" stroke="currentColor" stroke-width="1.5"></path>
            <path d="M14.7283392,11.549992 C15.3496595,11.549992 15.9121595,11.8018319 16.3193295,12.2090018 C16.7264994,12.6161717 16.9783392,13.1786717 16.9783392,13.799992 C16.9783392,14.4213124 16.7264994,14.9838124 16.3193295,15.3909823 C15.9121595,15.7981522 15.3496595,16.049992 14.7283392,16.049992 C14.1070189,16.049992 13.5445189,15.7981522 13.1373489,15.3909823 C12.730179,14.9838124 12.4783392,14.4213124 12.4783392,13.799992 C12.4783392,13.1786717 12.730179,12.6161717 13.1373489,12.2090018 C13.5445189,11.8018319 14.1070189,11.549992 14.7283392,11.549992 Z" id="椭圆形备份-9" stroke="currentColor" stroke-width="1.5"></path>
        </g>
    </g>
</svg>
