<?xml version="1.0" encoding="UTF-8"?>
<svg width="18px" height="18px" viewBox="0 0 18 18" version="1.1" xmlns="http://www.w3.org/2000/svg" xmlns:xlink="http://www.w3.org/1999/xlink">
    <g stroke="none" stroke-width="1" fill="none" fill-rule="evenodd">
        <g>
            <rect fill="#D8D8D8" opacity="0" x="0" y="0" width="18" height="18"></rect>
            <rect fill="currentColor" x="8.24480062" y="2.70823023" width="1.5" height="12.8391608"></rect>
            <path d="M15.9047481,5.39854581 L14.4047481,5.39854581 L14.4042874,4.38384908 C14.4035838,3.88697969 14.0007483,3.48429618 13.5038787,3.48377993 L4.50448833,3.48308763 C4.00743206,3.48298017 3.60445734,3.88589289 3.60441911,4.38294917 C3.6044191,4.38297224 3.6044191,4.38299532 3.60448834,4.3830184 L3.60448834,5.39854581 L3.60448834,5.39854581 L2.10448834,5.39854581 L2.10448834,3.8 C2.10448834,2.80588745 2.91037579,2 3.90448834,2 L14.1047481,2 C15.0988607,2 15.9047481,2.80588745 15.9047481,3.8 L15.9047481,5.39854581 L15.9047481,5.39854581 Z" id="路径" fill="currentColor"></path>
            <polygon fill="currentColor" transform="translate(8.997452, 15.328347) rotate(-270.000000) translate(-8.997452, -15.328347) " points="8.24745244 12.6283467 9.74745244 12.6283467 9.74745244 18.0283467 8.24745244 18.0283467"></polygon>
        </g>
    </g>
</svg>
