<?xml version="1.0" encoding="UTF-8"?>
<svg width="20px" height="20px" viewBox="0 0 20 20" version="1.1" xmlns="http://www.w3.org/2000/svg" xmlns:xlink="http://www.w3.org/1999/xlink">
    <g stroke="none" stroke-width="1" fill="none" fill-rule="evenodd">
        <g transform="translate(1.000000, 1.000000)" stroke="currentColor" stroke-width="1.5">
            <g transform="translate(1.000000, 1.000000)">
                <path d="M3.51881736,1.88061409 L11.8958866,2.63452922 C12.3187317,2.67348206 12.6970745,2.86142174 12.9784713,3.14541961 C13.2598681,3.42941747 13.4443188,3.80947351 13.4793796,4.23265906 L13.4793796,4.23265906 L14.145962,12.2783589 C14.1858622,12.7599581 14.0267785,13.212137 13.73732,13.5538912 C13.4336637,13.9124082 12.9865295,14.1494023 12.4751252,14.1713553 L12.4751252,14.1713553 L4.23517686,13.469155 C3.81482749,13.4325952 3.43745796,13.2486495 3.15507076,12.9688448 C2.87268355,12.6890402 2.68527868,12.3133765 2.64485864,11.8933807 L2.64485864,11.8933807 L1.86557841,3.7960527 C1.8192848,3.31502604 1.97234838,2.86077394 2.25724202,2.5152051 C2.55760814,2.15086854 3.00451245,1.90734091 3.51881736,1.88061409 L3.51881736,1.88061409 Z" transform="translate(7.996412, 8.021817) rotate(45.000000) translate(-7.996412, -8.021817) "></path>
                <path d="M7.99641229,5.73248113 C8.61773264,5.73248113 9.18023264,5.98432096 9.58740255,6.39149087 C9.99457246,6.79866078 10.2464123,7.36116078 10.2464123,7.98248113 C10.2464123,8.60380147 9.99457246,9.16630147 9.58740255,9.57347138 C9.18023264,9.9806413 8.61773264,10.2324811 7.99641229,10.2324811 C7.37509195,10.2324811 6.81259195,9.9806413 6.40542203,9.57347138 C5.99825212,9.16630147 5.74641229,8.60380147 5.74641229,7.98248113 C5.74641229,7.36116078 5.99825212,6.79866078 6.40542203,6.39149087 C6.81259195,5.98432096 7.37509195,5.73248113 7.99641229,5.73248113 Z"></path>
            </g>
        </g>
    </g>
</svg>
