<?xml version="1.0" encoding="UTF-8"?>
<svg width="18px" height="18px" viewBox="0 0 18 18" version="1.1" xmlns="http://www.w3.org/2000/svg" xmlns:xlink="http://www.w3.org/1999/xlink">
    <g stroke="none" stroke-width="1" fill="none" fill-rule="evenodd">
        <g>
            <rect fill="#D8D8D8" opacity="0" x="0" y="0" width="18" height="18"></rect>
            <g transform="translate(0.692308, 0.692308)">
                <line x1="4.15384615" y1="2.49230769" x2="13.2923077" y2="14.1230769" id="路径-2" stroke="currentColor" stroke-width="1.5"></line>
                <path d="M4.27495484,4.10769231 C5.10338196,4.10769231 5.77495484,3.43611943 5.77495484,2.60769231 C5.77495484,1.77926518 5.10338196,1.10769231 4.27495484,1.10769231 C3.44652771,1.10769231 2.77495484,1.77926518 2.77495484,2.60769231 C2.77495484,3.43611943 3.44652771,4.10769231 4.27495484,4.10769231 Z" fill="currentColor"></path>
                <path d="M13.0455392,15.1846154 C13.8739663,15.1846154 14.5455392,14.5130425 14.5455392,13.6846154 C14.5455392,12.8561883 13.8739663,12.1846154 13.0455392,12.1846154 C12.2171121,12.1846154 11.5455392,12.8561883 11.5455392,13.6846154 C11.5455392,14.5130425 12.2171121,15.1846154 13.0455392,15.1846154 Z" fill="currentColor"></path>
            </g>
        </g>
    </g>
</svg>
